<?xml version="1.0" encoding="UTF-8" standalone="no"?>
<svg
   xmlns:dc="http://purl.org/dc/elements/1.1/"
   xmlns:cc="http://creativecommons.org/ns#"
   xmlns:rdf="http://www.w3.org/1999/02/22-rdf-syntax-ns#"
   xmlns:svg="http://www.w3.org/2000/svg"
   xmlns="http://www.w3.org/2000/svg"
   viewBox="0 0 554.46912 554.46912"
   height="554.46912"
   width="554.46912"
   id="svg2"
   version="1.1">
  <metadata
     id="metadata8">
    <rdf:RDF>
      <cc:Work
         rdf:about="">
        <dc:format>image/svg+xml</dc:format>
        <dc:type
           rdf:resource="http://purl.org/dc/dcmitype/StillImage" />
        <dc:title></dc:title>
      </cc:Work>
    </rdf:RDF>
  </metadata>
  <defs
     id="defs6" />
  <g
     transform="translate(-863.87531,96.325188)"
     id="g10">
    <path
       id="path837"
       d="m 943.62892,374.65952 c -0.0319,-27.6375 -0.42617,-94.125 -0.87615,-147.75 -0.46301,-55.17833 -0.43847,-102.05772 0.0565,-108 4.03968,-48.493659 26.21929,-94.996229 61.53053,-129.006981 32.1627,-30.978293 70.7366,-49.553047 115.3471,-55.543902 12.4444,-1.67118 38.1173,-1.875318 50.0263,-0.397782 68.7883,8.534525 127.7144,50.224545 158.3902,112.060766 30.4976,61.476849 27.944,134.198529 -6.7846,193.207359 -23.355,39.68358 -58.9363,69.95511 -102.257,86.9973 -41.0007,16.12947 -91.533,17.92298 -132.6288,4.70731 l -8.9327,-2.8726 -66.3813,48.42427 c -36.50971,26.63334 -66.61772,48.42426 -66.9067,48.42426 -0.28897,0 -0.55151,-22.6125 -0.58342,-50.25 z"
       style="fill:#22517e;fill-opacity:1" />
    <path
       transform="translate(863.87531,-96.325188)"
       d="m 272.66602,121.76172 c 3.99233,-0.0483 7.9897,0.64492 11.15625,2.08984 20.0511,9.14961 21.38444,36.86296 2.31054,48.04102 -5.5867,3.27405 -16.58738,4.17701 -22.64258,1.85937 -9.0515,-3.46446 -15.91741,-12.29014 -17.22461,-22.14453 -1.43249,-10.79854 5.107,-22.56199 15.2793,-27.48633 3.1425,-1.52125 7.12876,-2.31107 11.1211,-2.35937 z m 18.49218,72.13672 c 1.06327,0.0128 1.88776,0.12998 2.63086,0.33008 3.3965,0.91458 6.46945,3.41162 8.62305,7.00586 0.4943,0.825 1.12539,28.275 1.40039,61 l 0.5,59.5 7.32812,0.5 c 6.91921,0.47203 7.5203,0.70986 10.75,4.23632 2.89541,3.16134 3.41797,4.46747 3.41797,8.5 -0.005,5.99837 -2.86192,10.89198 -7.48632,12.82422 -4.9705,2.07676 -68.44984,2.03952 -73.24024,-0.043 -4.4725,-1.94432 -7.26758,-6.88961 -7.26758,-12.88476 -0.003,-4.32331 0.43071,-5.3018 3.87891,-8.75 3.7825,-3.78255 4.0653,-3.88281 11,-3.88281 h 7.11914 V 277.3457 232.45703 l -3.75,-0.70312 c -11.2996,-2.11843 -17.05394,-12.83838 -12.05664,-22.46094 3.6285,-6.98673 5.65719,-7.90479 26.86719,-12.17188 11.75512,-2.36494 17.09534,-3.26094 20.28515,-3.22265 z"
       style="opacity:1;fill:#ffffff;fill-opacity:1;stroke:none;stroke-width:0.944882;stroke-linecap:round;stroke-linejoin:round"
       id="path849" />
  </g>
</svg>
